<svg width="197" height="146" viewBox="0 0 197 146" fill="none" xmlns="http://www.w3.org/2000/svg">
<path d="M65.3484 76.3552C60.4133 113.592 87.5242 129.275 113.984 137.591C105.08 141.622 75.2247 154.308 39.6446 137.591C-39.7345 100.295 13.4369 2.59549e-05 82.4842 0C145.182 -2.35683e-05 171.187 32.5077 172.195 63.7553C173.203 95.003 135.656 89.2071 144.223 69.5513C151.078 53.8266 151.28 46.6195 144.98 36.5396C127.34 19.4038 70.8923 34.5237 65.3484 76.3552Z" fill="white"/>
<path d="M104.932 108.564C107.555 107.094 128.489 98.1804 138.523 98.8166C157.227 100.002 176.196 106.456 179.227 106.456C181.232 106.455 191.434 104.154 190.288 107.904C190.288 107.904 194.924 112.217 194.9 116.071C194.893 117.132 194.506 121.632 195.165 122.687C195.824 123.741 197.21 124.733 196.216 126.871C196.611 129.506 196.423 132.67 192.998 134.12C191.031 134.952 185.996 135.782 177.65 136.413C175.78 140.891 171.361 144.038 166.205 144.038C161.428 144.038 157.285 141.335 155.215 137.375C154.662 137.386 154.103 137.4 153.537 137.409C134.261 137.736 101.388 137.795 89.9817 137.88C88.0112 141.25 84.4871 143.641 80.301 143.988C75.5512 144.381 71.2078 142.041 68.8147 138.281C61.5374 138.366 54.3845 138.386 52.8987 138.2C49.7367 137.806 47.2495 138.141 47.3811 136.166C47.5128 134.19 48.2288 132.632 49.0784 129.243C49.1488 128.961 49.8107 128.092 51.0305 126.807C49.0408 126.806 61.2588 118.233 64.4905 116.665C72.4803 112.788 76.5743 111.519 94.2619 110.552C98.4686 110.322 98.8723 110.602 98.8723 110.602C101.426 110.1 103.214 109.524 104.932 108.564Z" fill="white"/>
</svg>
